<?xml version="1.0" encoding="UTF-8"?>
<svg width="677px" height="874px" viewBox="0 0 677 874" version="1.1" xmlns="http://www.w3.org/2000/svg" xmlns:xlink="http://www.w3.org/1999/xlink">
    <!-- Generator: Sketch 63.1 (92452) - https://sketch.com -->
    <title>messaging</title>
    <desc>Created with Sketch.</desc>
    <g id="Page-1" stroke="none" stroke-width="1" fill="none" fill-rule="evenodd">
        <g id="messaging" transform="translate(-5.000000, 0.000000)">
            <path d="M5.62666323,232.647329 C-13.0442133,114.994001 390.862945,-68.3961258 500.191095,26.1583088 C573.076528,89.1945985 552.445228,166.977039 438.297196,259.50563 C502.43652,189.819454 556.04548,180.866687 599.124076,232.647329 C642.202672,284.42797 601.067062,358.959128 475.717245,456.240803 C581.138392,382.895934 649.507673,390.381606 680.825087,478.697817 C704.336564,545.001009 359.848631,950.200679 266.069848,860.158309 C203.550659,800.130062 219.386836,743.278828 313.578377,689.604609 C204.482169,743.278828 141.326694,759.224412 124.111951,737.441359 C73.1816532,672.995587 104.102641,598.919151 216.874915,515.212048 C128.620805,585.364822 69.7563353,585.364822 40.2815062,515.212048 C10.8066772,445.059275 59.46814,359.823802 186.265895,259.50563 C78.2869914,320.035647 18.0739142,311.08288 5.62666323,232.647329 Z" id="Path-3" fill-opacity="0.5" fill="#38B2AC"></path>
            <path d="M526.00003,245.94725 L522.00125,245.94725 L522.00125,136.40192 C522.001266,119.586653 515.321423,103.460093 503.431219,91.5699183 C491.541014,79.6797438 475.414437,73 458.59917,73 L226.51273,73 C209.697476,73 193.570918,79.6797709 181.68073,91.5699436 C169.790542,103.460116 163.11073,119.586666 163.11073,136.40192 L163.11073,737.3761 C163.11073,754.191356 169.790539,770.317908 181.680727,782.208083 C193.570915,794.098258 209.697474,800.77803 226.51273,800.77803 L458.59917,800.77803 C475.414434,800.77803 491.541004,794.098273 503.431203,782.208098 C515.321401,770.317922 522.001239,754.191364 522.00122,737.3761 L522.00122,323.9235 L526.00003,323.9235 L526.00003,245.94725 Z" id="Path" fill="#1A202C" fill-rule="nonzero"></path>
            <path d="M461.15749,89.49494 L430.86249,89.49494 C433.691633,96.4311882 432.882361,104.320629 428.703968,110.538029 C424.525574,116.755428 417.526357,120.484925 410.03536,120.4855 L277.0759,120.4855 C269.584893,120.484927 262.585665,116.755426 258.407267,110.538017 C254.228869,104.320608 253.419599,96.4311559 256.24875,89.49494 L227.95319,89.49494 C215.395771,89.49494 203.352664,94.4833196 194.473216,103.362744 C185.593767,112.242168 180.60532,124.285261 180.60532,136.84268 L180.60532,736.93524 C180.60532,749.49267 185.593744,761.53578 194.473194,770.415219 C203.352643,779.294657 215.39576,784.28305 227.95319,784.28305 L461.15749,784.28305 C473.714919,784.28305 485.758032,779.294653 494.63748,770.415215 C503.516927,761.535777 508.50535,749.492669 508.50535,736.93524 L508.50535,136.84272 C508.50535,124.285303 503.516904,112.242211 494.637458,103.362787 C485.758012,94.4833634 473.714907,89.49494 461.15749,89.49494 L461.15749,89.49494 Z" id="Path" fill="#FFFFFF" fill-rule="nonzero"></path>
            <path d="M356.79462,741.77883 C314.322923,741.798815 277.637056,712.079946 268.841626,670.528943 C260.046196,628.97794 281.543366,586.943006 320.380288,569.751761 C359.21721,552.560515 404.786937,564.908146 429.632005,599.354743 C454.477072,633.80134 451.811919,680.939021 423.2424,712.36557 L442.00779,733.40136 L432.6435,737.37348 C418.15714,743.51818 403.98115,737.53904 396.0245,732.7672 C383.796236,738.695169 370.384,741.776136 356.79462,741.77883 L356.79462,741.77883 Z M356.79462,576.83127 C325.396166,576.840964 297.310044,596.361544 286.356641,625.787484 C275.403238,655.213425 283.889376,688.347527 307.639267,708.885436 C331.389159,729.423345 365.400997,733.03971 392.93852,717.95502 L396.94725,715.75235 L400.6745,718.4045 C404.933665,721.502166 409.770329,723.715034 414.8989,724.91244 L403.09052,711.67568 L408.26669,706.81151 C423.466759,692.652473 432.062652,672.788601 431.979634,652.0157 C431.932044,610.511971 398.298349,576.878267 356.79462,576.83127 Z" id="Shape" fill="#E2E8F0" fill-rule="nonzero"></path>
            <path d="M439.268395,652.01561 C439.253728,614.875635 414.406972,582.330755 378.583652,572.529342 C342.760332,562.727929 304.805986,578.090161 285.885529,610.049421 C266.965073,642.00868 271.750368,682.673548 297.572936,709.36761 C323.395504,736.061672 363.879205,742.193597 396.44865,724.34397 C402.14973,728.40029 416.05765,736.49103 429.79701,730.66304 L413.25841,712.12365 C429.876685,696.55303 439.294567,674.788633 439.268395,652.01561 Z" id="Path" fill="#FFFFFF" fill-rule="nonzero"></path>
            <rect id="Rectangle" fill="#319795" fill-rule="nonzero" x="314.31772" y="635.1527" width="58.93215" height="5.4727"></rect>
            <rect id="Rectangle" fill="#E2E8F0" fill-rule="nonzero" x="314.31772" y="654.08451" width="102.71378" height="5.4727"></rect>
            <rect id="Rectangle" fill="#E2E8F0" fill-rule="nonzero" x="314.31772" y="673.01632" width="102.6132" height="5.4727"></rect>
            <path d="M356.79462,342.77883 C314.322923,342.798815 277.637056,313.079946 268.841626,271.528943 C260.046196,229.97794 281.543366,187.943006 320.380288,170.751761 C359.21721,153.560515 404.786937,165.908146 429.632005,200.354743 C454.477072,234.80134 451.811919,281.939021 423.2424,313.36557 L442.00779,334.40136 L432.6435,338.37348 C418.15714,344.51818 403.98115,338.53904 396.0245,333.7672 C383.796236,339.695169 370.384,342.776136 356.79462,342.77883 Z M356.79462,177.83127 C325.396166,177.840964 297.310044,197.361544 286.356641,226.787484 C275.403238,256.213425 283.889376,289.347527 307.639267,309.885436 C331.389159,330.423345 365.400997,334.03971 392.93852,318.95502 L396.94725,316.75235 L400.6745,319.4045 C404.933665,322.502166 409.770329,324.715034 414.8989,325.91244 L403.09052,312.67568 L408.26669,307.81151 C423.466759,293.652473 432.062652,273.788601 431.979634,253.0157 C431.932044,211.511971 398.298349,177.878267 356.79462,177.83127 Z" id="Shape" fill="#E2E8F0" fill-rule="nonzero"></path>
            <path d="M439.268395,253.01561 C439.253728,215.875635 414.406972,183.330755 378.583652,173.529342 C342.760332,163.727929 304.805986,179.090161 285.885529,211.049421 C266.965073,243.00868 271.750368,283.673548 297.572936,310.36761 C323.395504,337.061672 363.879205,343.193597 396.44865,325.34397 C402.14973,329.40029 416.05765,337.49103 429.79701,331.66304 L413.25841,313.12365 C429.876685,297.55303 439.294567,275.788633 439.268395,253.01561 Z" id="Path" fill="#FFFFFF" fill-rule="nonzero"></path>
            <rect id="Rectangle" fill="#319795" fill-rule="nonzero" x="314.31772" y="236.1527" width="58.93215" height="5.4727"></rect>
            <rect id="Rectangle" fill="#E2E8F0" fill-rule="nonzero" x="314.31772" y="255.08451" width="102.71378" height="5.4727"></rect>
            <rect id="Rectangle" fill="#E2E8F0" fill-rule="nonzero" x="314.31772" y="274.01632" width="102.6132" height="5.4727"></rect>
            <circle id="Oval" fill="#E2E8F0" fill-rule="nonzero" cx="471.0315" cy="337.4463" r="13"></circle>
            <circle id="Oval" fill="#E2E8F0" fill-rule="nonzero" cx="471.0315" cy="736.4463" r="13"></circle>
            <path d="M203.02235,531.30361 C194.75706,536.26054 180.0312,542.47161 164.98293,536.08861 L155.25541,531.96241 L174.74869,510.11067 C142.516303,474.571361 142.571802,420.356274 174.876885,384.883031 C207.181967,349.409789 261.155484,344.297233 299.546537,373.073896 C337.93759,401.850559 348.171643,455.090985 323.18546,496.050232 C298.199278,537.00948 246.176788,552.271831 203.02235,531.30367 L203.02235,531.30361 Z M165.672542,447.41987 C165.586306,468.998524 174.515626,489.632889 190.30529,504.34113 L195.68223,509.39398 L183.41582,523.14418 C188.743323,521.900326 193.767596,519.601622 198.19197,516.3838 L202.06379,513.6288 L206.22802,515.91691 C237.085488,532.836869 275.447241,527.032279 299.91758,501.740564 C324.387919,476.44885 328.923288,437.916425 310.994153,407.634179 C293.065018,377.351932 257.099422,362.798814 223.156643,372.091611 C189.213864,381.384407 165.676911,412.228031 165.672542,447.41991 L165.672542,447.41987 Z" id="Shape" fill="#319795" fill-rule="nonzero"></path>
            <path d="M158.101073,447.41978 C158.116301,408.839189 183.926829,375.031925 221.139692,364.850322 C258.352556,354.668719 297.779109,370.62683 317.433471,403.82575 C337.087832,437.024671 332.116923,479.266883 305.292728,506.996377 C278.468533,534.72587 236.414515,541.095645 202.58174,522.55365 C196.65952,526.76732 182.21217,535.17189 167.93984,529.11783 L185.11994,509.85933 C167.857071,493.684743 158.073886,471.076135 158.101073,447.41978 L158.101073,447.41978 Z" id="Path" fill="#FFFFFF" fill-rule="nonzero"></path>
            <path d="M314.30258,446.98708 C314.299856,402.607172 280.407909,365.575494 236.20185,361.65114 C238.69738,361.43255 241.22169,361.31426 243.77395,361.31426 C291.078309,361.330421 329.4175,399.682713 329.4175,446.987075 C329.4175,494.291437 291.078309,532.643729 243.77395,532.65989 C241.22555,532.65989 238.70562,532.54007 236.21384,532.32196 C280.414736,528.391777 314.29983,491.362361 314.30258,446.98708 Z" id="Path" fill="#F7FAFC" fill-rule="nonzero"></path>
            <rect id="Rectangle" fill="#319795" fill-rule="nonzero" x="194.58015" y="429.90278" width="61.21804" height="5.68498"></rect>
            <rect id="Rectangle" fill="#319795" fill-rule="nonzero" x="194.58015" y="449.56893" width="106.6979" height="5.68498"></rect>
            <rect id="Rectangle" fill="#319795" fill-rule="nonzero" x="194.58015" y="469.23508" width="106.59343" height="5.68498"></rect>
        </g>
    </g>
</svg>